<svg xmlns="http://www.w3.org/2000/svg" width="32" height="32" viewBox="0 0 32 32" fill="none">
  <path d="M16 4C9.4 4 4 9.4 4 16C4 22.6 9.4 28 16 28C22.6 28 28 22.6 28 16C28 9.4 22.6 4 16 4ZM16 26C10.5 26 6 21.5 6 16C6 10.5 10.5 6 16 6C21.5 6 26 10.5 26 16C26 21.5 21.5 26 16 26ZM17 9H15V17H17V9ZM20.6 10.8L19.2 12.2C20.3 13.4 21 15.1 21 17C21 20.3 18.3 23 15 23C11.7 23 9 20.3 9 17C9 13.7 11.7 11 15 11V9C10.6 9 7 12.6 7 17C7 21.4 10.6 25 15 25C19.4 25 23 21.4 23 17C23 14.5 22.1 12.2 20.6 10.8Z" fill="white"/>
</svg> 