<svg xmlns="http://www.w3.org/2000/svg" width="32" height="32" viewBox="0 0 32 32" fill="none">
  <path d="M16 2C8.3 2 2 8.3 2 16C2 23.7 8.3 30 16 30C23.7 30 30 23.7 30 16C30 8.3 23.7 2 16 2ZM16 28C9.4 28 4 22.6 4 16C4 9.4 9.4 4 16 4C22.6 4 28 9.4 28 16C28 22.6 22.6 28 16 28ZM22 14C23.1 14 24 13.1 24 12C24 10.9 23.1 10 22 10C20.9 10 20 10.9 20 12C20 13.1 20.9 14 22 14ZM10 14C11.1 14 12 13.1 12 12C12 10.9 11.1 10 10 10C8.9 10 8 10.9 8 12C8 13.1 8.9 14 10 14ZM16 24C19.7 24 22.8 21.4 23.7 17.8L21.8 17.4C21.1 20.1 18.8 22 16 22C13.2 22 10.9 20.1 10.2 17.4L8.3 17.8C9.2 21.4 12.3 24 16 24Z" fill="white"/>
</svg> 